<?xml version="1.0" encoding="utf-8"?>
<!-- Generator: Adobe Illustrator 25.2.0, SVG Export Plug-In . SVG Version: 6.00 Build 0)  -->
<svg version="1.1" id="Layer_1" xmlns="http://www.w3.org/2000/svg" xmlns:xlink="http://www.w3.org/1999/xlink" x="0px" y="0px"
	 viewBox="0 0 20 18" style="enable-background:new 0 0 20 18;" xml:space="preserve">
<style type="text/css">
	.st0{fill:#FDCB6E;}
	.st1{fill:#D63031;}
</style>
<g id="XMLID_1_">
	<g>
		<path class="st0" d="M19,14v1c0,1.7-1.3,3-3,3H4c-1.7,0-3-1.3-3-3v-1H19z"/>
		<path class="st0" d="M19,6H1c0,0,0-6,9-6S19,6,19,6z"/>
		<path class="st1" d="M13.5,10L16,8h2c1.1,0,2,0.9,2,2s-0.9,2-2,2H2c-1.1,0-2-0.9-2-2s0.9-2,2-2h9L13.5,10z"/>
	</g>
	<g>
	</g>
</g>
</svg>
