<?xml version="1.0" encoding="utf-8"?>
<!-- Generator: Adobe Illustrator 25.2.0, SVG Export Plug-In . SVG Version: 6.00 Build 0)  -->
<svg version="1.1" id="Layer_1" xmlns="http://www.w3.org/2000/svg" xmlns:xlink="http://www.w3.org/1999/xlink" x="0px" y="0px"
	 viewBox="0 0 30 30" style="enable-background:new 0 0 30 30;" xml:space="preserve">
<style type="text/css">
	.st0{fill:#FFFFFF;}
	.st1{fill:#A00117;}
</style>
<circle class="st0" cx="15" cy="15" r="15"/>
<path class="st1" d="M10.8,5h8.4c3.2,0,5.8,2.6,5.8,5.8v8.4c0,3.2-2.6,5.8-5.8,5.8h-8.4C7.6,25,5,22.4,5,19.2v-8.4
	C5,7.6,7.6,5,10.8,5 M10.6,7C8.6,7,7,8.6,7,10.6l0,0v8.8c0,2,1.6,3.6,3.6,3.6h8.8c2,0,3.6-1.6,3.6-3.6c0,0,0,0,0,0v-8.8
	c0-2-1.6-3.6-3.6-3.6H10.6 M20.2,8.5c0.7,0,1.2,0.6,1.2,1.2S20.9,11,20.2,11S19,10.4,19,9.8S19.6,8.5,20.2,8.5 M15,10
	c2.8,0,5,2.2,5,5s-2.2,5-5,5s-5-2.2-5-5S12.2,10,15,10 M15,12c-1.7,0-3,1.3-3,3s1.3,3,3,3s3-1.3,3-3S16.7,12,15,12z"/>
</svg>
