<?xml version="1.0" encoding="utf-8"?>
<!-- Generator: Adobe Illustrator 25.2.0, SVG Export Plug-In . SVG Version: 6.00 Build 0)  -->
<svg version="1.1" id="Layer_1" xmlns="http://www.w3.org/2000/svg" xmlns:xlink="http://www.w3.org/1999/xlink" x="0px" y="0px"
	 viewBox="0 0 19.2 19.2" style="enable-background:new 0 0 19.2 19.2;" xml:space="preserve">
<style type="text/css">
	.st0{fill:#FAB1A0;}
</style>
<path class="st0" d="M8.6,3.6h3l3.3-3.3c0.4-0.4,1-0.4,1.4,0l0,0l2.6,2.6c0.4,0.4,0.4,1,0,1.4l-2.3,2.3h-8v2c0,0.6-0.4,1-1,1
	s-1-0.4-1-1v-3C6.6,4.5,7.5,3.6,8.6,3.6 M2.6,8.6v4l-2.3,2.3c-0.4,0.4-0.4,1,0,1.4l2.6,2.6c0.4,0.4,1,0.4,1.4,0l0,0l4.3-4.3h4
	c0.6,0,1-0.4,1-1v-1h1c0.6,0,1-0.4,1-1v-1h1c0.6,0,1-0.4,1-1v-1h-7v1c0,1.1-0.9,2-2,2h-2c-1.1,0-2-0.9-2-2v-3L2.6,8.6z"/>
</svg>
