<?xml version="1.0" encoding="utf-8"?>
<!-- Generator: Adobe Illustrator 25.2.0, SVG Export Plug-In . SVG Version: 6.00 Build 0)  -->
<svg version="1.1" id="Capa_1" xmlns="http://www.w3.org/2000/svg" xmlns:xlink="http://www.w3.org/1999/xlink" x="0px" y="0px"
	 viewBox="0 0 25 24" style="enable-background:new 0 0 25 24;" xml:space="preserve">
<style type="text/css">
	.st0{fill:#FFFFFF;}
</style>
<g>
	<path class="st0" d="M24.9,19.1l-0.2-0.4c-0.3-0.8-1.2-1.7-2.1-1.9L19.4,16c-0.9-0.2-2.2,0.1-2.8,0.7l-1.2,1.1
		c-4.3-1.1-7.7-4.3-8.9-8.5l1.2-1.1c0.6-0.6,1-1.9,0.7-2.7L7.5,2.3c-0.2-0.9-1.2-1.8-2-2.1L5.1,0.1C4.2-0.1,3,0.1,2.3,0.8L0.5,2.5
		C0.2,2.8,0,3.6,0,3.6c-0.1,5.5,2.2,10.6,6.2,14.5s9.4,5.9,15,5.9c0,0,0.9-0.2,1.2-0.5l1.8-1.7C24.9,21.2,25.1,20,24.9,19.1z"/>
</g>
</svg>
