<?xml version="1.0" encoding="utf-8"?>
<!-- Generator: Adobe Illustrator 25.2.0, SVG Export Plug-In . SVG Version: 6.00 Build 0)  -->
<svg version="1.1" id="Layer_1" xmlns="http://www.w3.org/2000/svg" xmlns:xlink="http://www.w3.org/1999/xlink" x="0px" y="0px"
	 viewBox="0 0 30 30" style="enable-background:new 0 0 30 30;" xml:space="preserve">
<style type="text/css">
	.st0{fill:#FFFFFF;}
	.st1{fill:#A00117;}
</style>
<circle class="st0" cx="15" cy="15" r="15"/>
<g id="XMLID_1_">
	<g>
		<path class="st1" d="M5.1,14.9C5.1,9.5,9.6,5,15,5c2.7,0,5.2,1,7,2.9c1.9,1.9,2.9,4.4,2.9,7c0,5.5-4.5,9.9-10,9.9
			c-1.7,0-3.3-0.4-4.8-1.2L5,25l1.4-5.1C5.5,18.4,5.1,16.7,5.1,14.9z M15.1,6.7c-4.6,0-8.3,3.7-8.3,8.2c0,1.6,0.4,3.1,1.3,4.4
			l0.2,0.3l-0.8,3l3.1-0.8l0.3,0.2c1.3,0.8,2.7,1.2,4.2,1.2c4.6,0,8.3-3.7,8.3-8.2c0-2.2-0.9-4.3-2.4-5.8
			C19.3,7.5,17.3,6.7,15.1,6.7z"/>
		<path class="st1" d="M11,15.3c-0.1-0.2-1-1.3-1-2.6c0-1.2,0.7-1.8,0.9-2.1c0.2-0.2,0.5-0.3,0.7-0.3c0.2,0,0.3,0,0.5,0
			c0.2,0,0.4-0.1,0.6,0.4c0.2,0.5,0.7,1.7,0.8,1.8c0.1,0.1,0.1,0.3,0,0.4c-0.1,0.2-0.1,0.3-0.2,0.4c-0.1,0.2-0.3,0.3-0.4,0.4
			c-0.1,0.1-0.2,0.3-0.1,0.5c0.2,0.2,0.6,1.1,1.4,1.7c0.9,0.8,1.8,1.1,2,1.2c0.2,0.1,0.4,0.1,0.5-0.1c0.1-0.2,0.6-0.7,0.8-1
			c0.2-0.2,0.3-0.2,0.6-0.1c0.2,0.1,1.5,0.7,1.7,0.8c0.2,0.1,0.4,0.2,0.5,0.3c0.1,0.1,0.1,0.6-0.1,1.2c-0.2,0.6-1.2,1.1-1.7,1.2
			c-0.4,0.1-1,0.1-1.6-0.1c-0.4-0.1-0.8-0.3-1.4-0.5C12.8,17.9,11.1,15.4,11,15.3z"/>
	</g>
	<g>
	</g>
</g>
</svg>
