<?xml version="1.0" encoding="utf-8"?>
<!-- Generator: Adobe Illustrator 25.2.0, SVG Export Plug-In . SVG Version: 6.00 Build 0)  -->
<svg version="1.1" id="Layer_1" xmlns="http://www.w3.org/2000/svg" xmlns:xlink="http://www.w3.org/1999/xlink" x="0px" y="0px"
	 viewBox="0 0 130 80" style="enable-background:new 0 0 130 80;" xml:space="preserve">
<style type="text/css">
	.st0{fill:#FFFCFD;}
	.st1{fill:#621813;}
	.st2{fill:#CF171D;}
	.st3{fill:#2D8CCC;}
</style>
<g>
	<g>
		<path class="st0" d="M127.4,61.3c-1.4-1.6-3.9-3.5-8.3-3.5c-4.4,0-6.9,1.9-8.3,3.5c-0.1,0.1-0.1,0.2-0.2,0.3
			c-1.2-2.4-3.6-3.7-6.8-3.7c-1.5,0-2.9,0.3-4.1,0.7c-0.5-0.3-1.2-0.5-1.9-0.5h-0.1L93,58.4c-1,0.1-1.9,0.4-2.5,1.1
			c-0.7-0.8-1.7-1.3-2.9-1.3l-5.1,0.3c-1,0.1-1.9,0.4-2.5,1.1c-1.6-1.1-3.6-1.6-6-1.6c-3.3,0-6.1,1-8.1,2.9
			c-0.1,0.1-0.2,0.2-0.3,0.4c-1.6-2.1-4.3-3.3-7.8-3.3c-3.3,0-6.1,1-8.1,2.9c-0.5,0.5-0.9,1-1.3,1.5c-0.5-1.1-1.2-2-2.1-2.7
			c-2-1.5-4.7-1.8-6.7-1.8c-2.7,0-4.7,0.4-6.2,1.3c-0.8,0.5-1.5,1.1-2,1.8c-0.4-1.9-2.1-2.8-3.6-2.8L23,58.4c-0.1,0-0.2,0-0.3,0
			c-0.6-2.3-2.2-3.6-3.4-4.3c-1.8-1-4.2-1.5-7.6-1.5h-8c-2.2,0-3.6,1.5-3.6,3.6v1.6c0,1.7,1,3,2.4,3.4V71C1.2,71.4,0,72.5,0,74.5
			v1.5c0,2.1,1.5,3.6,3.6,3.6h8.1c2.8,0,5.8-0.2,8.1-1.4c0.1,0,0.1-0.1,0.2-0.1c0.6,0.9,1.7,1.4,3,1.4h7.6c1,0,1.9-0.3,2.5-0.9
			c1.3,0.7,2.9,1.1,4.7,1.1c1.7,0,3.2-0.3,4.5-0.9c1,0.6,2.2,0.9,3.5,0.9c1.6,0,2.6-0.2,3.5-0.5c0.7-0.3,1.2-0.7,1.6-1.3
			c1.9,1.3,4.4,1.9,7.3,1.9c3.3,0,5.6-0.9,6.6-1.4c0.6-0.3,1.1-0.6,1.4-1.1c2,1.6,4.8,2.5,8.1,2.5c2.6,0,4.5-0.5,5.8-1
			c0.6,0.5,1.5,0.8,2.4,0.8h7.6c0.5,0,1-0.1,1.4-0.2c0.4,0.2,0.9,0.2,1.4,0.2h7.6c1.2,0,2.3-0.5,2.9-1.4c1.1,1,2.6,1.5,4.3,1.5
			c1.6,0,2.6-0.2,3.5-0.5c0.5-0.2,1-0.6,1.4-1c1.7,1.2,3.8,1.7,6.3,1.7c4.4,0,6.9-1.9,8.3-3.5c1.7-2,2.5-4.6,2.5-7.6
			C129.9,65.9,129,63.3,127.4,61.3z"/>
		<path class="st0" d="M45.3,28.4v10.3h0v10.5c0,2.3,1.9,4.3,4.2,4.3h31.1c2.3,0,4.2-1.9,4.2-4.3V38.8h0V28.4
			c1.7-1.1,3.2-2.7,4.3-4.4c1.5-2.5,2.2-5.3,1.9-8.1c-0.2-3.2-1.6-6.3-3.9-8.6c-2.3-2.3-5.3-3.8-8.5-4.1c-1.6-0.2-3.2-0.1-4.7,0.3
			C71.3,1.2,68.1,0,64.7,0c-3.3,0-6.5,1.2-9,3.4c-1.5-0.3-3-0.4-4.5-0.2C44.8,3.9,39.8,9,39.1,15.3C38.5,20.5,40.9,25.6,45.3,28.4z"
			/>
	</g>
	<g id="XMLID_14_">
		<g id="XMLID_16_">
			<g id="XMLID_17_">
				<g id="XMLID_18_">
					<g id="XMLID_50_">
						<path id="XMLID_67_" class="st1" d="M4.4,58.5c-0.3,0-0.5,0-0.9,0c-0.5,0-0.5-0.2-0.5-0.6v-1.6c0-0.5,0.2-0.6,0.6-0.6h8
							c5.3,0,8.3,1.2,8.3,5.2c0,3-1.9,4.3-4,4.6v0c3.1,0.3,5.1,2.1,5.1,5.2c0,5.3-3.9,6-9.4,6H3.6C3.1,76.6,3,76.5,3,76v-1.5
							c0-0.5,0.2-0.7,0.5-0.7c1.5,0,1.9-0.2,1.9-1.5V59.9C5.4,59,5.2,58.6,4.4,58.5z M9.6,64h2.5c2.4,0,3.4-0.8,3.4-2.9
							c0-2.1-1.5-2.6-3.3-2.6H9.6V64z M9.6,73.8h2.7c2.1,0,4.2-0.4,4.2-3.2c0-2.9-1.6-3.6-4.5-3.6H9.6V73.8z"/>
						<path id="XMLID_65_" class="st1" d="M28.7,72.7c0.1,1,0.4,1.2,1.4,1.2h0.4c0.5,0,0.6,0.2,0.6,0.5V76c0,0.5-0.2,0.6-0.6,0.6
							h-7.6c-0.5,0-0.6-0.1-0.6-0.6v-1.7c0-0.4,0.1-0.5,0.6-0.5h0.4c1,0,1.4-0.2,1.4-1.2v-7.5c-0.1-0.7-0.3-0.9-0.9-1l-0.7,0
							c-0.5,0-0.6-0.3-0.6-0.7v-1.5c0-0.5,0.1-0.6,0.6-0.6l4.9-0.3c0.5,0,0.7,0.2,0.7,0.8V72.7L28.7,72.7z"/>
						<path id="XMLID_62_" class="st1" d="M39.9,60.9c4.2,0,6.6,1.1,6.6,5.8v6c0,0.8,0.3,1.2,0.9,1.2c0.5,0,0.6-0.1,0.9-0.1
							c0.2,0,0.3,0,0.3,0.3v1.8c0,0.3-0.1,0.6-0.4,0.7c-0.5,0.2-1,0.3-2.4,0.3c-1.2,0-2.5-0.4-3-1.8c-1,1.1-2.7,1.8-5,1.8
							c-3.3,0-5-1.4-5-4.4c0-4.2,3.6-5.2,8.7-5.2h1v-0.8c0-1.9-0.7-2.7-2.7-2.7c-0.6,0-1.3,0.1-1.9,0.3c0,0.2,0.1,0.3,0.1,0.5
							c0,1.4-1.1,2.3-2.3,2.3c-1.1,0-2.1-0.9-2.1-2.2C33.5,62,35.7,60.9,39.9,60.9z M38.8,74c2.2,0,3.7-1.4,3.7-3.8v-0.3h-1
							c-2.9,0-4.8,0.6-4.8,2.5C36.7,73.4,37.3,74,38.8,74z"/>
						<path id="XMLID_60_" class="st1" d="M58.9,73.6c2.2,0,3.4-0.6,4.2-0.9c0.8-0.3,0.9-0.2,0.9,0.4V75c0,0.5-0.1,0.6-0.5,0.8
							c-0.6,0.3-2.4,1.1-5.3,1.1c-5.8,0-8.6-2.8-8.6-7.8c0-5.5,3.4-8.3,8.3-8.3c4.6,0,6.1,2.4,6.1,4.2c0,1.4-0.9,2.5-2.4,2.5
							c-1.5,0-2.5-1-2.5-2.4c0-0.4,0.1-0.9,0.3-1.2c-0.4-0.1-0.9-0.1-1.4-0.1c-3.1,0-4.1,2.3-4.1,5C54,72.1,55.4,73.6,58.9,73.6z"/>
						<path id="XMLID_58_" class="st1" d="M75,73.6c2.2,0,3.4-0.6,4.2-0.9c0.8-0.3,0.9-0.2,0.9,0.4V75c0,0.5-0.1,0.6-0.5,0.8
							c-0.6,0.3-2.4,1.1-5.3,1.1c-5.8,0-8.6-2.8-8.6-7.8c0-5.5,3.4-8.3,8.3-8.3c4.6,0,6.1,2.4,6.1,4.2c0,1.4-0.9,2.5-2.4,2.5
							c-1.5,0-2.5-1-2.5-2.4c0-0.4,0.1-0.9,0.3-1.2c-0.4-0.1-0.9-0.1-1.4-0.1c-3.1,0-4.1,2.3-4.1,5C70.1,72.1,71.5,73.6,75,73.6z"/>
						<path id="XMLID_56_" class="st1" d="M88.4,72.7c0.1,1,0.4,1.2,1.4,1.2h0.4c0.5,0,0.6,0.2,0.6,0.5V76c0,0.5-0.2,0.6-0.6,0.6
							h-7.6c-0.5,0-0.6-0.1-0.6-0.6v-1.7c0-0.4,0.1-0.5,0.6-0.5H83c1,0,1.4-0.2,1.4-1.2v-7.5c-0.1-0.7-0.3-0.9-0.9-1l-0.7,0
							c-0.5,0-0.6-0.3-0.6-0.7v-1.5c0-0.5,0.1-0.6,0.6-0.6l4.9-0.3c0.5,0,0.7,0.2,0.7,0.8V72.7L88.4,72.7z"/>
						<path id="XMLID_54_" class="st1" d="M93.1,64.3c-0.4,0-0.5-0.3-0.5-0.6V62c0-0.4,0.1-0.6,0.6-0.6l4.7-0.3
							c0.5,0,0.6,0.2,0.6,0.8v1.8c0.8-2.1,2.9-2.9,5.3-2.9c2.7,0,4.7,1.2,4.7,5.1v6.6c0,0.9,0.3,1.3,0.9,1.3c0.5,0,0.6-0.1,1-0.1
							c0.2,0,0.3,0,0.3,0.3v1.8c0,0.3-0.1,0.6-0.4,0.7c-0.5,0.2-1,0.3-2.4,0.3c-1.5,0-3.3-0.6-3.3-3.3v-7c0-1.4-0.6-2.3-2.2-2.3
							c-2.4,0-3.6,2.3-3.6,6.2v2.1c0,1.3,0.3,1.4,1.4,1.4h0.4c0.5,0,0.6,0.2,0.6,0.5v1.7c0,0.5-0.2,0.6-0.6,0.6H93
							c-0.5,0-0.6-0.1-0.6-0.6v-1.7c0-0.4,0.1-0.5,0.6-0.5h0.4c1,0,1.4-0.2,1.4-1.2v-7.5C94.8,64.5,94.5,64.3,93.1,64.3z"/>
						<path id="XMLID_51_" class="st1" d="M119.1,60.9c5.6,0,7.8,3.7,7.8,8.1c0,4.3-2.2,8.1-7.8,8.1c-5.6,0-7.8-3.8-7.8-8.1
							C111.3,64.6,113.5,60.9,119.1,60.9z M115.5,69c0,3.3,1.1,5.3,3.6,5.3c2.5,0,3.6-2,3.6-5.3c0-3.3-1.1-5.3-3.6-5.3
							C116.7,63.6,115.5,65.6,115.5,69z"/>
					</g>
					<g id="XMLID_47_">
						<path id="XMLID_49_" class="st2" d="M78.2,6.1c-1.9-0.2-3.7,0.1-5.3,0.7c-2-2.4-5-3.9-8.3-3.9c-3.2,0-6.2,1.4-8.2,3.7
							c-1.5-0.5-3.2-0.8-5-0.6c-4.9,0.6-8.9,4.6-9.4,9.5c-0.5,4.9,2.2,9.2,6.2,11.1v13.8h33.4V26.7c3.9-1.8,6.6-5.9,6.3-10.6
							C87.6,10.9,83.4,6.7,78.2,6.1z"/>
						<path id="XMLID_48_" class="st3" d="M49.4,50.6h31.1c0.6,0,1.2-0.6,1.2-1.3V43c0-0.7,0-1.3,0-1.3H48.3c0,0,0,0.6,0,1.3v6.2
							C48.3,50,48.8,50.6,49.4,50.6z"/>
					</g>
					<path id="XMLID_46_" class="st0" d="M70.8,21.2c1-0.7,1.7-2,1.7-3.7c0-4.7-4.5-5.2-7.9-5.2h-6.8c-1.2,0-1.4,0.9-1.4,1.4V15
						c0,0.9,0.5,1.3,1.3,1.3c0.3,0,0.5,0,0.6,0c0,0,0.1,0,0.1,0c0,0.1,0,0.2,0,0.3v10.4c0,0.2,0,0.3,0,0.4c-0.1,0-0.3,0.1-0.7,0.1
						c-0.6,0-1.3,0.4-1.3,1.4v1.3c0,0.9,0.5,1.4,1.4,1.4h6.8c4.3,0,8.8-0.5,8.8-5.9C73.4,23.7,72.4,22.1,70.8,21.2z"/>
					<g id="XMLID_40_">
						<path id="XMLID_45_" class="st0" d="M54.8,34.7l0.4,0.8c0,0.1,0.1,0.1,0.1,0.1l0.9,0.1l-0.6,0.6c0,0-0.1,0.1-0.1,0.2l0.2,0.9
							L54.9,37c-0.1,0-0.1,0-0.2,0l-0.8,0.4l0.2-0.9c0-0.1,0-0.1-0.1-0.2l-0.6-0.6l0.9-0.1c0.1,0,0.1-0.1,0.1-0.1L54.8,34.7z"/>
						<path id="XMLID_44_" class="st0" d="M59.9,34.7l0.4,0.8c0,0.1,0.1,0.1,0.1,0.1l0.9,0.1l-0.6,0.6c0,0-0.1,0.1-0.1,0.2l0.2,0.9
							L60,37c-0.1,0-0.1,0-0.2,0L59,37.4l0.2-0.9c0-0.1,0-0.1-0.1-0.2l-0.6-0.6l0.9-0.1c0.1,0,0.1-0.1,0.1-0.1L59.9,34.7z"/>
						<path id="XMLID_43_" class="st0" d="M65,34.7l0.4,0.8c0,0.1,0.1,0.1,0.1,0.1l0.9,0.1l-0.6,0.6c0,0-0.1,0.1-0.1,0.2l0.2,0.9
							L65.1,37c-0.1,0-0.1,0-0.2,0l-0.8,0.4l0.2-0.9c0-0.1,0-0.1-0.1-0.2l-0.6-0.6l0.9-0.1c0.1,0,0.1-0.1,0.1-0.1L65,34.7z"/>
						<path id="XMLID_42_" class="st0" d="M70,34.7l0.4,0.8c0,0.1,0.1,0.1,0.1,0.1l0.9,0.1l-0.6,0.6c0,0-0.1,0.1-0.1,0.2l0.2,0.9
							L70.1,37c-0.1,0-0.1,0-0.2,0l-0.8,0.4l0.2-0.9c0-0.1,0-0.1-0.1-0.2l-0.6-0.6l0.9-0.1c0.1,0,0.1-0.1,0.1-0.1L70,34.7z"/>
						<path id="XMLID_41_" class="st0" d="M75.1,34.7l0.4,0.8c0,0.1,0.1,0.1,0.1,0.1l0.9,0.1l-0.6,0.6c0,0-0.1,0.1-0.1,0.2l0.2,0.9
							L75.2,37c-0.1,0-0.1,0-0.2,0l-0.8,0.4l0.2-0.9c0-0.1,0-0.1-0.1-0.2l-0.6-0.6l0.9-0.1c0.1,0,0.1-0.1,0.1-0.1L75.1,34.7z"/>
					</g>
				</g>
			</g>
		</g>
	</g>
</g>
</svg>
