<?xml version="1.0" encoding="utf-8"?>
<!-- Generator: Adobe Illustrator 25.2.0, SVG Export Plug-In . SVG Version: 6.00 Build 0)  -->
<svg version="1.1"
	 id="svg6" inkscape:version="0.92.2 (5c3e80d, 2017-08-06)" xmlns:cc="http://creativecommons.org/ns#" xmlns:dc="http://purl.org/dc/elements/1.1/" xmlns:inkscape="http://www.inkscape.org/namespaces/inkscape" xmlns:rdf="http://www.w3.org/1999/02/22-rdf-syntax-ns#" xmlns:sodipodi="http://sodipodi.sourceforge.net/DTD/sodipodi-0.dtd" xmlns:svg="http://www.w3.org/2000/svg"
	 xmlns="http://www.w3.org/2000/svg" xmlns:xlink="http://www.w3.org/1999/xlink" x="0px" y="0px" viewBox="0 0 3000 1585.4"
	 style="enable-background:new 0 0 3000 1585.4;" xml:space="preserve">
<style type="text/css">
	.st0{fill:#EA1D2C;}
</style>
<sodipodi:namedview  bordercolor="#666666" borderopacity="1" gridtolerance="10" guidetolerance="10" id="namedview8" inkscape:current-layer="svg6" inkscape:cx="816.30726" inkscape:cy="900.96384" inkscape:pageopacity="0" inkscape:pageshadow="2" inkscape:window-height="837" inkscape:window-maximized="1" inkscape:window-width="1600" inkscape:window-x="-8" inkscape:window-y="-8" inkscape:zoom="0.055242717" objecttolerance="10" pagecolor="#ffffff" showgrid="false">
	</sodipodi:namedview>
<path id="path2" inkscape:connector-curvature="0" inkscape:export-filename="C:\Users\suitedoalex\Desktop\logos comidas\ifood-logo.png" inkscape:export-xdpi="123.75137" inkscape:export-ydpi="123.75137" class="st0" d="
	M0,910.1h228.3l126.8-631.1H126.8L0,910.1z M174.4,222H444L488.4,0H218.8L174.4,222z M317.1,1087.7h228.3L685,405.9h171.2
	l25.4-126.8H713.5l6.3-28.5c9.5-53.9,28.5-114.2,114.2-114.2c50.7,0,98.3,3.2,145.9,25.4l25.4-133.2C951.4,9.5,894.3,0,840.4,0
	C656.4,0,529.6,107.8,482,279.1h-79.3l-25.4,126.8h79.3L317.1,1087.7z"/>
<path id="path4" inkscape:connector-curvature="0" inkscape:export-filename="C:\Users\suitedoalex\Desktop\logos comidas\ifood-logo.png" inkscape:export-xdpi="123.75137" inkscape:export-ydpi="123.75137" class="st0" d="
	M1040.2,922.8c269.6,0,456.7-244.2,456.7-444c0-149-136.4-212.5-269.6-212.5c-294.9,0-456.7,263.2-456.7,444
	C770.6,859.4,910.1,922.8,1040.2,922.8 M1763.2,922.8c269.6,0,456.7-244.2,456.7-444c0-149-139.5-212.5-272.7-212.5
	c-294.9,0-456.7,263.2-456.7,444C1490.5,859.4,1633.2,922.8,1763.2,922.8 M2590.9,910.1h225.2L3000,12.7h-228.3l-53.9,266.4
	l-95.1-9.5c-222,0-424.9,285.4-424.9,488.4c0,82.5,53.9,164.9,145.9,164.9c130,0,222-63.4,260-126.8h12.7L2590.9,910.1z
	 M1886.9,1382.7c-177.2,146.8-404.9,218.5-634.2,199.8c-301.3-19-516.9-250.5-555-494.7h12.7c69.8,152.2,237.8,294.9,444,317.1
	c209.3,25.4,459.8-69.8,596.2-199.8l-152.2-117.3h459.8l-101.5,488.4l-66.6-190.3L1886.9,1382.7z"/>
</svg>
