<?xml version="1.0" encoding="utf-8"?>
<!-- Generator: Adobe Illustrator 25.2.0, SVG Export Plug-In . SVG Version: 6.00 Build 0)  -->
<svg version="1.1"
	 id="svg6" xmlns:cc="http://creativecommons.org/ns#" xmlns:dc="http://purl.org/dc/elements/1.1/" xmlns:inkscape="http://www.inkscape.org/namespaces/inkscape" xmlns:rdf="http://www.w3.org/1999/02/22-rdf-syntax-ns#" xmlns:sodipodi="http://sodipodi.sourceforge.net/DTD/sodipodi-0.dtd" xmlns:svg="http://www.w3.org/2000/svg"
	 xmlns="http://www.w3.org/2000/svg" xmlns:xlink="http://www.w3.org/1999/xlink" x="0px" y="0px" viewBox="0 0 130 70"
	 style="enable-background:new 0 0 130 70;" xml:space="preserve">
<style type="text/css">
	.st0{fill:#EA1D2C;}
</style>
<sodipodi:namedview  bordercolor="#666666" borderopacity="1" gridtolerance="10" guidetolerance="10" id="namedview8" inkscape:current-layer="svg6" inkscape:cx="816.30726" inkscape:cy="900.96384" inkscape:pageopacity="0" inkscape:pageshadow="2" inkscape:window-height="837" inkscape:window-maximized="1" inkscape:window-width="1600" inkscape:window-x="-8" inkscape:window-y="-8" inkscape:zoom="0.055242717" objecttolerance="10" pagecolor="#ffffff" showgrid="false">
	</sodipodi:namedview>
<g>
	
		<path id="path2" inkscape:connector-curvature="0" inkscape:export-filename="C:\Users\suitedoalex\Desktop\logos comidas\ifood-logo.png" inkscape:export-xdpi="123.75137" inkscape:export-ydpi="123.75137" class="st0" d="
		M0,40.2h9.9l5.5-27.9H5.5L0,40.2z M7.6,9.8h11.7L21.2,0H9.5L7.6,9.8z M13.8,48h9.9l6.1-30.1h7.4l1.1-5.6h-7.3l0.3-1.3
		c0.4-2.4,1.2-5,4.9-5c2.2,0,4.3,0.1,6.3,1.1l1.1-5.9C41.2,0.4,38.7,0,36.4,0c-8,0-13.5,4.8-15.5,12.3h-3.5l-1.1,5.6h3.4L13.8,48z"
		/>
	
		<path id="path4" inkscape:connector-curvature="0" inkscape:export-filename="C:\Users\suitedoalex\Desktop\logos comidas\ifood-logo.png" inkscape:export-xdpi="123.75137" inkscape:export-ydpi="123.75137" class="st0" d="
		M45.1,40.8c11.7,0,19.8-10.8,19.8-19.6c0-6.6-5.9-9.4-11.7-9.4c-12.8,0-19.8,11.6-19.8,19.6C33.4,38,39.4,40.8,45.1,40.8
		 M76.4,40.8c11.7,0,19.8-10.8,19.8-19.6c0-6.6-6.1-9.4-11.8-9.4c-12.8,0-19.8,11.6-19.8,19.6C64.6,38,70.8,40.8,76.4,40.8
		 M112.3,40.2h9.8l8-39.6h-9.9l-2.3,11.8l-4.1-0.4c-9.6,0-18.4,12.6-18.4,21.6c0,3.6,2.3,7.3,6.3,7.3c5.6,0,9.6-2.8,11.3-5.6h0.5
		L112.3,40.2z M81.8,61c-7.7,6.5-17.5,9.6-27.5,8.8C41.2,69,31.9,58.8,30.2,48h0.5c3,6.7,10.3,13,19.2,14c9.1,1.1,19.9-3.1,25.8-8.8
		L69.3,48h19.9l-4.4,21.6l-2.9-8.4L81.8,61z"/>
</g>
</svg>
