<?xml version="1.0" encoding="utf-8"?>
<!-- Generator: Adobe Illustrator 25.2.0, SVG Export Plug-In . SVG Version: 6.00 Build 0)  -->
<svg version="1.1" id="Camada_1" xmlns="http://www.w3.org/2000/svg" xmlns:xlink="http://www.w3.org/1999/xlink" x="0px" y="0px"
	 viewBox="0 0 130 108" style="enable-background:new 0 0 130 108;" xml:space="preserve">
<style type="text/css">
	.st0{fill-rule:evenodd;clip-rule:evenodd;fill:#C19A00;}
	.st1{fill-rule:evenodd;clip-rule:evenodd;}
</style>
<g>
	<polygon points="30.4,94.4 27.1,94.4 27.1,105.2 24,107.9 24,94.4 19.1,94.4 23.2,91.2 24,91.2 24,80.1 27.1,77.7 27.1,91.2 
		30.4,91.2 30.4,80.1 33.6,77.7 33.6,105.1 30.4,107.9 	"/>
	<path d="M6,87.8v-6.3H4.3c-0.6,0-1,0.5-1,1v5.7c0,0.3,0.1,0.6,0.3,0.7l4.2,3.9c0.9,0.8,1.5,2.1,1.5,3.3v7.9c0,1.8-1.5,3.2-3.3,3.2
		H0v-7l3.2-2.5v6.3H5c0.5,0,1-0.4,1-1v-5.8c0-0.3-0.1-0.6-0.3-0.7l-4.3-4C0.5,91.9,0,90.6,0,89.4v-7.9c0-1.8,1.4-3.2,3.3-3.2h6v7
		L6,87.8L6,87.8z"/>
	<path d="M17.6,87.8v-6.3h-2.7v21.6c0,0.5,0.5,1,1,1h1.7v-3.8l3.2-2.5v9.5H16c-2.4,0-4.4-2-4.4-4.4V82.7c0-2.4,1.9-4.4,4.4-4.4h4.8
		v7L17.6,87.8L17.6,87.8z"/>
	<path d="M43.5,81.5h-2.3c-0.6,0-1,0.5-1,1v21.6h2.3c0.6,0,1-0.5,1-1V81.5L43.5,81.5z M46.7,102.9c0,2.3-1.9,4.4-4.4,4.4h-5.4V82.7
		c0-2.3,1.8-4.4,4.4-4.4h5.4V102.9L46.7,102.9z"/>
	<polygon points="108.1,87.8 108.1,81.5 105.3,81.5 105.3,91.2 110.1,91.2 107.6,94.4 105.3,94.4 105.3,104.1 108.1,104.1 
		108.1,100.3 111.3,97.9 111.3,104.5 111.3,107.3 108.4,107.3 102.4,107.3 102.1,107.3 102.1,107 102.1,94.4 98.7,94.4 101.2,91.2 
		102.1,91.2 102.1,81.2 102.1,78.3 104.9,78.3 110.9,78.3 111.3,78.3 111.3,78.7 111.3,85.3 	"/>
	<polygon points="117,77.7 117,105.4 113.8,107.9 113.8,80.2 	"/>
	<polygon points="96.6,88.2 96.6,81.5 94.8,81.5 94.8,105.5 91.5,108 91.5,81.5 89.7,81.5 89.7,85.8 86.5,88.2 86.5,81.2 86.5,78.3 
		89.3,78.3 94.8,78.3 94.8,78.3 94.8,78.3 99.5,78.3 99.9,78.3 99.9,78.7 99.9,85.8 	"/>
	<path d="M81.2,87.8v-6.3h-1.7c-0.6,0-1,0.5-1,1v5.7c0,0.3,0.1,0.6,0.3,0.7l4.2,3.9c0.9,0.8,1.5,2.1,1.5,3.3v7.9
		c0,1.8-1.5,3.2-3.3,3.2h-6v-7l3.2-2.5v6.3h1.7c0.5,0,1-0.4,1-1v-5.8c0-0.3-0.1-0.6-0.3-0.7l-4.3-3.9c-0.9-0.8-1.4-2.1-1.4-3.2v-7.9
		c0-1.8,1.4-3.2,3.3-3.2h6v7L81.2,87.8L81.2,87.8z"/>
	<polygon points="72.8,77.8 72.8,105.3 69.6,107.9 65.6,91 65.6,105.5 62.4,107.9 62.4,80.2 65.6,77.8 69.6,94.7 69.6,80.2 	"/>
	<polygon points="130,77.8 130,105.3 126.8,107.9 122.8,91 122.8,105.5 119.6,107.9 119.6,80.2 122.8,77.8 126.8,94.7 126.8,80.2 	
		"/>
	<path class="st0" d="M67.4,57.7c-0.6-0.5-1.5-0.8-2.5-0.8c-0.2,0-0.4,0-0.5,0c-1.2,0.4-2.1,1.5-2.1,2.8c0,1.6,1.1,3,2.8,4.1
		c0.9-0.5,1.8-1.1,2.3-1.8c0.6-0.7,0.9-1.5,0.9-2.2C68.4,58.9,68,58.2,67.4,57.7L67.4,57.7z M63.7,57c-0.5,0.2-0.9,0.4-1.2,0.7
		c-0.6,0.5-1,1.2-1,2c0,0.7,0.4,1.5,0.9,2.2c0.7,0.8,1.5,1.5,2.5,2l0,0c-1.8-1-2.9-2.5-2.9-4.2C62,58.4,62.7,57.5,63.7,57L63.7,57z"
		/>
	<path class="st0" d="M63.1,63.2c-0.2,0.3-0.3,0.7-0.3,1.2c0,1.3,0.9,2.5,2.3,3.4c0.8-0.4,1.5-0.9,2-1.5s0.8-1.2,0.8-1.8
		c0-0.6-0.2-1.1-0.7-1.5c-0.6,0.6-1.4,1-2.2,1.5l-0.1,0.1l-0.1-0.1C64.2,64,63.6,63.6,63.1,63.2L63.1,63.2z M62.7,62.8
		c-0.4,0.4-0.6,0.9-0.6,1.5c0,0.6,0.3,1.3,0.8,1.8c0.5,0.6,1.3,1.2,2.1,1.7l0,0c-1.5-0.9-2.4-2.1-2.4-3.5c0-0.5,0.1-0.9,0.4-1.3
		C62.8,63,62.7,62.9,62.7,62.8L62.7,62.8z"/>
	<path class="st0" d="M61,59.5c-0.5,0.1-1,0.3-1.5,0.7c-1.2,0.9-1.7,2.4-1.6,4c0.9,0.2,1.7,0.3,2.6,0.3c0.4-0.1,0.9-0.1,1.2-0.3
		c0.1-0.6,0.3-1.2,0.8-1.6l0,0l0,0l0,0l0,0l0,0l0,0l0,0l0,0l0,0l0,0l0,0l0,0l0,0l0,0l0,0l0,0l0,0l0,0l0,0l0,0l0,0l0,0l0,0l0,0l0,0
		l0,0l0,0l0,0l0,0l0,0l0,0l0,0l0,0l0,0l0,0l0,0c-0.7-0.8-1-1.6-1-2.5l0,0l0,0l0,0l0,0l0,0l0,0l0,0l0,0l0,0l0,0l0,0l0,0l0,0l0,0l0,0
		l0,0l0,0l0,0l0,0l0,0l0,0l0,0l0,0l0,0l0,0l0,0l0,0l0,0l0,0l0,0l0,0l0,0l0,0l0,0l0,0l0,0l0,0l0,0l0,0l0,0l0,0l0,0l0,0l0,0l0,0l0,0
		l0,0l0,0l0,0l0,0l0,0l0,0l0,0l0,0l0,0l0,0L61,59.5L61,59.5L61,59.5L61,59.5L61,59.5L61,59.5L61,59.5L61,59.5L61,59.5L61,59.5
		L61,59.5z M61,59L61,59c-0.8-0.1-1.5,0.2-2.1,0.6c-0.5,0.4-0.9,1.1-1.2,1.8c-0.2,0.8-0.3,1.7-0.2,2.7l0,0c0-1.6,0.5-3.1,1.8-4.1
		c0.5-0.4,1.1-0.7,1.7-0.7l0,0l0,0l0,0l0,0l0,0l0,0l0,0l0,0l0,0l0,0l0,0l0,0l0,0l0,0l0,0l0,0l0,0l0,0l0,0l0,0l0,0l0,0l0,0l0,0l0,0
		l0,0l0,0l0,0l0,0l0,0l0,0l0,0l0,0l0,0l0,0l0,0l0,0l0,0l0,0l0,0l0,0l0,0l0,0l0,0l0,0l0,0l0,0l0,0l0,0l0,0l0,0l0,0l0,0l0,0l0,0l0,0
		l0,0l0,0l0,0l0,0V59L61,59L61,59L61,59L61,59L61,59L61,59L61,59z"/>
	<path class="st0" d="M68.9,59.5c0.5,0.1,1,0.3,1.5,0.7c1.2,0.9,1.7,2.4,1.6,4c-0.9,0.2-1.7,0.3-2.6,0.3c-0.4-0.1-0.9-0.1-1.2-0.3
		c-0.1-0.6-0.3-1.2-0.8-1.6l0,0l0,0l0,0l0,0l0,0l0,0l0,0l0,0l0,0l0,0l0,0l0,0l0,0l0,0l0,0l0,0l0,0l0,0l0,0l0,0l0,0l0,0l0,0l0,0l0,0
		l0,0l0,0l0,0l0,0l0,0l0,0l0,0l0,0l0,0c0.7-0.8,1.1-1.7,1.1-2.5l0,0l0,0l0,0l0,0l0,0l0,0l0,0l0,0l0,0l0,0l0,0l0,0l0,0l0,0l0,0l0,0
		l0,0l0,0l0,0l0,0l0,0l0,0l0,0l0,0l0,0l0,0l0,0l0,0l0,0l0,0l0,0l0,0l0,0l0,0l0,0l0,0l0,0l0,0l0,0l0,0l0,0l0,0l0,0l0,0l0,0l0,0l0,0
		l0,0l0,0l0,0l0,0l0,0l0,0l0,0l0,0l0,0L68.9,59.5L68.9,59.5L68.9,59.5L68.9,59.5L68.9,59.5L68.9,59.5L68.9,59.5L68.9,59.5L68.9,59.5
		L68.9,59.5L68.9,59.5z M67.8,63.9L67.8,63.9L67.8,63.9L67.8,63.9z M67.2,62.9L67.2,62.9L67.2,62.9L67.2,62.9z M68.8,59L68.8,59
		c0.8-0.1,1.5,0.2,2.1,0.6c0.6,0.4,0.9,1.1,1.2,1.8c0.2,0.8,0.3,1.7,0.2,2.7l0,0c0.1-1.7-0.4-3.2-1.6-4.2c-0.5-0.4-1.1-0.7-1.7-0.7
		l0,0l0,0l0,0l0,0l0,0l0,0l0,0l0,0l0,0l0,0l0,0l0,0l0,0l0,0l0,0l0,0l0,0l0,0l0,0l0,0l0,0l0,0l0,0l0,0l0,0l0,0l0,0l0,0l0,0l0,0l0,0
		l0,0l0,0l0,0l0,0l0,0l0,0l0,0l0,0l0,0l0,0l0,0l0,0l0,0l0,0l0,0l0,0l0,0l0,0l0,0l0,0l0,0l0,0l0,0l0,0l0,0l0,0l0,0l0,0l0,0L68.8,59
		L68.8,59L68.8,59L68.8,59L68.8,59L68.8,59L68.8,59L68.8,59L68.8,59L68.8,59z"/>
	<path class="st0" d="M66.7,67.1c0.4,0.6,0.9,1.1,1.6,1.5c0.2,0.1,0.4,0.2,0.6,0.3c0.1,0.8-0.1,1.6-0.4,2.4
		c-0.7-0.1-1.3-0.3-1.8-0.7c-0.5-0.3-1-0.8-1.2-1.3c-0.2-0.4-0.2-0.8-0.2-1.2C65.8,67.8,66.2,67.5,66.7,67.1L66.7,67.1z M69.3,69.1
		c0,0.1,0,0.1,0,0.2c-0.1,0.7-0.3,1.4-0.7,2.1l0,0c0.4-0.8,0.5-1.6,0.5-2.3C69.2,69,69.2,69.1,69.3,69.1L69.3,69.1z"/>
	<path class="st0" d="M68.2,64.6L68.2,64.6L68.2,64.6L68.2,64.6L68.2,64.6L68.2,64.6L68.2,64.6L68.2,64.6L68.2,64.6L68.2,64.6
		L68.2,64.6L68.2,64.6L68.2,64.6L68.2,64.6L68.2,64.6L68.2,64.6L68.2,64.6L68.2,64.6L68.2,64.6L68.2,64.6L68.2,64.6L68.2,64.6
		L68.2,64.6L68.2,64.6L68.2,64.6L68.2,64.6L68.2,64.6L68.2,64.6L68.2,64.6L68.2,64.6L68.2,64.6L68.2,64.6L68.2,64.6L68.2,64.6
		L68.2,64.6L68.2,64.6L68.2,64.6L68.2,64.6L68.2,64.6L68.2,64.6L68.2,64.6L68.2,64.6L68.2,64.6L68.2,64.6L68.2,64.6L68.2,64.6
		L68.2,64.6L68.2,64.6L68.2,64.6L68.2,64.6L68.2,64.6L68.2,64.6L68.2,64.6L68.2,64.6L68.2,64.6L68.2,64.6L68.2,64.6L68.2,64.6
		L68.2,64.6L68.2,64.6L68.2,64.6L68.2,64.6L68.2,64.6L68.2,64.6L68.2,64.6L68.2,64.6h0.2l0,0l0,0l0,0l0,0l0,0l0,0l0,0l0,0l0,0l0,0
		l0,0l0,0l0,0l0,0l0,0l0,0l0,0l0,0l0,0l0,0l0,0l0,0l0,0l0,0l0,0l0,0l0,0l0,0l0,0l0,0l0,0l0,0l0,0l0,0l0,0l0,0l0,0l0,0l0,0l0,0l0,0
		l0,0l0,0l0,0l0,0l0,0l0,0l0,0l0,0l0,0l0,0l0,0l0,0l0,0l0,0l0,0l0,0l0,0l0,0l0,0l0,0l0,0l0,0l0,0l0,0l0,0l0,0l0,0l0,0l0,0l0,0l0,0
		l0,0l0,0l0,0l0,0l0,0l0,0l0,0l0,0l0,0l0,0l0,0l0,0l0,0l0,0l0,0l0,0l0,0c0,0.1,0.1,0.1,0.1,0.2c0.7,1.3,0.5,2.7-0.2,4
		c-0.8-0.1-1.6-0.4-2.3-0.7c-0.6-0.4-1.1-0.8-1.5-1.4c0.2-0.2,0.3-0.3,0.4-0.5C67.9,65.9,68.2,65.2,68.2,64.6L68.2,64.6z M71.4,64.8
		c0.3,0.6,0.4,1.3,0.3,2c-0.1,0.8-0.4,1.6-0.9,2.3l0,0c0.7-1.4,0.9-2.8,0.2-4.1c0,0,0-0.1-0.1-0.1l0,0l0,0l0,0l0,0l0,0l0,0l0,0l0,0
		l0,0l0,0l0,0l0,0l0,0l0,0l0,0l0,0l0,0l0,0l0,0l0,0l0,0l0,0l0,0l0,0l0,0l0,0l0,0l0,0l0,0l0,0H71l0,0l0,0l0,0l0,0l0,0l0,0l0,0l0,0
		l0,0l0,0l0,0l0,0l0,0l0,0l0,0l0,0l0,0l0,0l0,0l0,0l0,0l0,0l0,0l0,0l0,0l0,0l0,0l0,0L71.4,64.8L71.4,64.8L71.4,64.8L71.4,64.8
		L71.4,64.8z"/>
	<path class="st0" d="M61.6,64.6c-0.4,0.2-0.8,0.2-1.3,0.3c-0.4,0-0.8,0-1.2,0c0,0.1-0.1,0.1-0.1,0.2c-0.7,1.3-0.5,2.7,0.2,4
		c0.8-0.1,1.6-0.4,2.3-0.7c0.6-0.4,1.1-0.8,1.5-1.4c-0.2-0.2-0.3-0.3-0.4-0.5C62,65.9,61.7,65.2,61.6,64.6L61.6,64.6z M58.4,64.8
		c-0.3,0.6-0.4,1.3-0.3,2c0.1,0.8,0.4,1.6,0.9,2.3l0,0c-0.7-1.4-0.9-2.8-0.2-4.1c0,0,0-0.1,0.1-0.1C58.7,64.8,58.6,64.8,58.4,64.8
		L58.4,64.8z"/>
	<path class="st0" d="M60.9,68.9c-0.1,0.8,0.1,1.6,0.4,2.4c0.7-0.1,1.3-0.3,1.8-0.7c0.5-0.3,1-0.8,1.2-1.3c0.2-0.4,0.2-0.8,0.2-1.2
		c-0.5-0.3-1-0.6-1.4-1c-0.4,0.6-0.9,1.1-1.6,1.5C61.4,68.7,61.2,68.8,60.9,68.9L60.9,68.9z M60.6,69.1c0,0.1,0,0.1,0,0.2
		c0.1,0.7,0.3,1.4,0.7,2.1l0,0c-0.4-0.8-0.5-1.6-0.5-2.3C60.7,69,60.6,69.1,60.6,69.1L60.6,69.1z M60.8,68.6L60.8,68.6L60.8,68.6
		L60.8,68.6L60.8,68.6z"/>
	<path class="st0" d="M64.9,68.4L64.9,68.4L64.9,68.4c0,0.4-0.1,0.7-0.3,1.1c-0.3,0.6-0.7,1-1.2,1.4c0.1,1.1,0.7,2,1.6,2.8
		c0.5-0.4,1-0.9,1.4-1.4c0.2-0.3,0.4-0.7,0.5-1.1c-0.1-0.1-0.2-0.1-0.3-0.2c-0.6-0.4-1.1-0.9-1.4-1.5C65,69.1,64.9,68.7,64.9,68.4
		L64.9,68.4z M63,71.1c0.1,0.4,0.3,0.7,0.5,1c0.4,0.6,0.9,1.1,1.5,1.5l0,0c-0.9-0.7-1.6-1.6-1.7-2.7C63.2,71,63.1,71.1,63,71.1
		L63,71.1z"/>
	<polygon class="st0" points="38.4,15.6 42.1,15.5 40.6,17.7 36.9,17.9 	"/>
	<polygon class="st0" points="35.9,18.3 36,12.4 37.9,10.1 37.5,15.6 	"/>
	<path class="st0" d="M47.6,5.5l-9.4,9.1C38.2,14.5,42.1,8.5,47.6,5.5L47.6,5.5z"/>
	<path class="st0" d="M47.2,7.8l-6.9,6.7C40.4,14.3,43.2,9.9,47.2,7.8L47.2,7.8z"/>
	<path class="st0" d="M45.3,4.9l-6.9,6.7C38.5,11.5,41.3,7.1,45.3,4.9L45.3,4.9z"/>
	<polygon class="st0" points="36.1,19.3 39.8,18.7 38.6,21.2 34.9,21.8 	"/>
	<polygon class="st0" points="34,22.4 33.3,16.5 34.9,14 35.3,19.4 	"/>
	<polygon class="st0" points="34.4,23.3 38,22.2 37,24.8 33.5,25.9 	"/>
	<polygon class="st0" points="32.7,26.6 31.2,20.9 32.4,18.2 33.6,23.5 	"/>
	<polygon class="st0" points="33.2,27.5 36.6,25.9 36.1,28.6 32.7,30.2 	"/>
	<polygon class="st0" points="32,31 29.7,25.6 30.5,22.7 32.4,27.9 	"/>
	<polygon class="st0" points="32.6,31.8 35.8,29.8 35.6,32.6 32.5,34.6 	"/>
	<polygon class="st0" points="31.9,35.5 28.9,30.4 29.3,27.5 31.9,32.3 	"/>
	<polygon class="st0" points="32.6,36.2 35.5,33.8 35.7,36.5 32.9,38.9 	"/>
	<polygon class="st0" points="32.4,39.9 28.8,35.2 28.8,32.3 32,36.7 	"/>
	<polygon class="st0" points="33.2,40.5 35.7,37.7 36.3,40.4 33.9,43.2 	"/>
	<polygon class="st0" points="33.5,44.2 29.2,40.1 28.9,37.2 32.6,41.1 	"/>
	<polygon class="st0" points="34.4,44.7 36.5,41.7 37.4,44.2 35.4,47.3 	"/>
	<polygon class="st0" points="35.2,48.4 30.4,44.8 29.6,42 33.9,45.4 	"/>
	<polygon class="st0" points="36.1,48.7 37.8,45.4 39.1,47.8 37.5,51.2 	"/>
	<polygon class="st0" points="37.4,52.2 32.2,49.3 31,46.7 35.7,49.5 	"/>
	<polygon class="st0" points="38.4,52.5 39.6,48.9 41.2,51.2 40.1,54.7 	"/>
	<polygon class="st0" points="40.1,55.7 34.6,53.6 33.1,51.1 38.1,53.3 	"/>
	<polygon class="st0" points="41.1,55.9 41.8,52.2 43.7,54.2 43.1,57.8 	"/>
	<polygon class="st0" points="43.3,58.9 37.5,57.5 35.7,55.3 41,56.7 	"/>
	<polygon class="st0" points="44.3,58.9 44.5,55.1 46.7,56.9 46.6,60.5 	"/>
	<polygon class="st0" points="46.9,61.5 41,61 38.9,59 44.3,59.7 	"/>
	<polygon class="st0" points="47.9,61.4 47.6,57.7 50,59.1 50.3,62.8 	"/>
	<polygon class="st0" points="50.9,63.7 44.9,63.9 42.5,62.3 48,62.3 	"/>
	<polygon class="st0" points="51.8,63.4 51,59.8 53.5,60.9 54.4,64.5 	"/>
	<polygon class="st0" points="55,65.3 49.2,66.4 46.6,65 52,64.3 	"/>
	<path class="st0" d="M55.9,64.9l-1.3-3.5l2.1,0.6c-0.1,0.5-0.2,1.2-0.1,1.7c0.1,0.9,0.3,1.1,0.5,1.2c0.2,0,0.2,0.1,0.2,0.1
		s0,0.1-0.1,0.2L55.9,64.9L55.9,64.9z"/>
	<path class="st0" d="M57.3,67l-3.6,1.2l-2.8-1l5.3-1.5l1,0.2C57.2,66.2,57.2,66.6,57.3,67L57.3,67z"/>
	<path class="st0" d="M58,69.3l-2.4-0.5l1.9-0.8c0,0.1,0.1,0.3,0.1,0.4C57.8,68.7,57.9,69,58,69.3L58,69.3z"/>
	<polygon class="st0" points="91.6,15.6 87.9,15.5 89.4,17.7 93.1,17.9 	"/>
	<polygon class="st0" points="94.1,18.3 94,12.4 92.1,10.1 92.5,15.6 	"/>
	<path class="st0" d="M82.4,5.5l9.4,9.1C91.8,14.5,87.9,8.5,82.4,5.5L82.4,5.5z"/>
	<path class="st0" d="M82.8,7.8l6.9,6.7C89.6,14.3,86.8,9.9,82.8,7.8L82.8,7.8z"/>
	<path class="st0" d="M84.7,4.9l6.9,6.7C91.5,11.5,88.7,7.1,84.7,4.9L84.7,4.9z"/>
	<polygon class="st0" points="93.9,19.3 90.2,18.7 91.4,21.2 95.1,21.8 	"/>
	<polygon class="st0" points="96,22.4 96.7,16.5 95.1,14 94.7,19.4 	"/>
	<polygon class="st0" points="95.6,23.3 92,22.2 92.9,24.8 96.5,25.9 	"/>
	<polygon class="st0" points="97.3,26.6 98.8,20.9 97.6,18.2 96.4,23.5 	"/>
	<polygon class="st0" points="96.8,27.5 93.4,25.9 93.9,28.6 97.3,30.2 	"/>
	<polygon class="st0" points="98,31 100.3,25.6 99.4,22.7 97.6,27.9 	"/>
	<polygon class="st0" points="97.4,31.8 94.2,29.8 94.4,32.6 97.5,34.6 	"/>
	<polygon class="st0" points="98.1,35.5 101.1,30.4 100.7,27.5 98.1,32.3 	"/>
	<polygon class="st0" points="97.4,36.2 94.5,33.8 94.3,36.5 97.1,38.9 	"/>
	<polygon class="st0" points="97.6,39.9 101.2,35.2 101.2,32.3 98,36.7 	"/>
	<polygon class="st0" points="96.8,40.5 94.3,37.7 93.7,40.4 96.1,43.2 	"/>
	<polygon class="st0" points="96.5,44.2 100.8,40.1 101.1,37.2 97.4,41.1 	"/>
	<polygon class="st0" points="95.6,44.7 93.5,41.7 92.6,44.2 94.6,47.3 	"/>
	<polygon class="st0" points="94.8,48.4 99.6,44.8 100.4,42 96.1,45.4 	"/>
	<polygon class="st0" points="93.9,48.7 92.2,45.4 90.9,47.8 92.5,51.2 	"/>
	<polygon class="st0" points="92.6,52.2 97.8,49.3 99,46.7 94.3,49.5 	"/>
	<polygon class="st0" points="91.6,52.5 90.4,48.9 88.8,51.2 89.9,54.7 	"/>
	<polygon class="st0" points="89.9,55.7 95.4,53.6 96.9,51.1 91.9,53.3 	"/>
	<polygon class="st0" points="88.9,55.9 88.2,52.2 86.3,54.2 86.9,57.8 	"/>
	<polygon class="st0" points="86.7,58.9 92.5,57.5 94.3,55.3 89,56.7 	"/>
	<polygon class="st0" points="85.7,58.9 85.5,55.1 83.3,56.9 83.4,60.5 	"/>
	<polygon class="st0" points="83.1,61.5 89,61 91.1,59 85.7,59.7 	"/>
	<polygon class="st0" points="82.1,61.4 82.4,57.7 80,59.1 79.7,62.8 	"/>
	<polygon class="st0" points="79.1,63.7 85.1,63.9 87.5,62.3 82,62.3 	"/>
	<polygon class="st0" points="78.2,63.4 79,59.8 76.5,60.9 75.6,64.5 	"/>
	<polygon class="st0" points="75,65.3 80.8,66.4 83.4,65 78,64.3 	"/>
	<path class="st0" d="M74.1,64.9l1.3-3.5L73.1,62c0.2,0.8,0.1,1.7,0.1,2.1c0,0.6-0.7,0.9-0.7,0.9s0,0.1,0.1,0.3L74.1,64.9L74.1,64.9
		z"/>
	<path class="st0" d="M72.7,67l3.6,1.2l2.8-1l-5.3-1.5L72.7,66C72.7,66.3,72.7,66.6,72.7,67L72.7,67L72.7,67z"/>
	<path class="st0" d="M71.7,69.3l2.7-0.6l-1.9-0.8C72.3,68.5,71.9,69,71.7,69.3L71.7,69.3z"/>
	<path class="st1" d="M55.2,95l5.4,11l-2.6,1.9l-4.9-10v7.5l-3.3,2.5c0-9.7,0-19.9,0-29.6h6c1.9,0,3.3,1.5,3.3,3.2v7.9
		c0,1.2-0.5,2.5-1.4,3.2L55.2,95L55.2,95z M53.2,81.5h1.6c0.8,0,1.1,0.6,1.1,1V89c0,0.4-0.1,0.7-0.3,0.9l-2.4,2.2L53.2,81.5
		L53.2,81.5z"/>
	<path class="st1" d="M68.3,54.2l4.1,0.7v2.5l-4.1-0.7v0.1V54.2L68.3,54.2z M69.2,58.3V58h-0.3L69.2,58.3L69.2,58.3z M65,23.9h2
		v-1.3l-1.2-0.1h-0.9L65,23.9L65,23.9z M65,10.9h0.3L67,11V9.5l-1-0.1h-1V10.9L65,10.9z M65,49.3h0.6l1.5,0.1v-1.6H65V49.3L65,49.3z
		 M73.7,59.2c0-0.3-1.1-0.5-1.4-0.6c-0.5-0.1-1.1-0.4-1.6-0.4v0.4c0.7,0.2,1.7,1.5,1.8,1.5c0.2,0,0.9-0.3,1.2-0.4V59.2L73.7,59.2
		L73.7,59.2z M65,55.9c0,0.2,0.1,0.2,0.2,0.2H67v-1.5h-2V55.9L65,55.9z M65,30.2h2v-1.5h-2V30.2L65,30.2z M65,36.6h0.7l1.4,0.1V35
		l-1.5-0.1H65V36.6L65,36.6z M65,43h0.7H67v-1.7h-2V43L65,43z M70.8,27.7l2.9,1v-1.2l-2.9-1.3V27.7L70.8,27.7z M70.8,33.8
		c0,0.3,1.1,0.4,1.4,0.5c0.5,0.2,1.1,0.4,1.5,0.5v-1c0-0.3-2.5-1.2-3-1.3L70.8,33.8L70.8,33.8z M70.8,40.3l2.9,0.8v-1.2
		c0-0.3-2.4-1-2.9-1V40.3L70.8,40.3z M70.8,14.8l2.9,1.2v-1.2c0-0.4-2.3-1.4-2.9-1.4V14.8L70.8,14.8z M70.8,8.5
		c0,0.2,1.2,0.6,1.4,0.7c0.5,0.2,1,0.5,1.5,0.7V8.4c-0.6-0.1-2-1.3-2.9-1.3V8.5L70.8,8.5z M70.8,46.6l2.9,0.7V46
		c0-0.3-2.4-0.9-2.9-1V46.6L70.8,46.6z M70.8,53.2l2.9,0.7v-1.3c0-0.3-2.4-0.8-2.9-0.8V53.2L70.8,53.2z M68.5,24.1l3.6,0.9v-1.3
		l-3.6-0.9V24.1L68.5,24.1z M65.8,14l3.4,0.4V13l-2.7-0.4l-0.7,0.1L65.8,14L65.8,14z M65.8,33.3l3.4,0.2v-1.2c0-0.4-2.8-0.5-3.4-0.5
		V33.3L65.8,33.3z M65.8,39.8h1.3l2.1,0.2v-1.5l-2.3-0.2h-1.1V39.8L65.8,39.8z M65.8,27h0.4l3,0.3v-1.5l-3-0.4l-0.4,0.1V27L65.8,27z
		 M68.5,30.4L68.5,30.4l3.6,0.8v-1.4l-3.6-0.9V30.4L68.5,30.4z M68.5,11.2c1.1,0,2.8,0.8,3.6,1v-1.3c0-0.4-3-1.1-3.6-1.2V11.2
		L68.5,11.2z M65.8,46.1l1-0.1l2.4,0.3v-1.4c0-0.4-2-0.4-2.5-0.4h-0.9V46.1L65.8,46.1z M65.8,52.7l3.4,0.2v-1.3
		c0-0.4-2.8-0.4-3.4-0.4V52.7L65.8,52.7z M68.5,43.1l3.6,0.6v-1.5l-3.6-0.7V43.1L68.5,43.1z M65.8,7.9l3.4,0.4V6.6l-3.4-0.4V7.9
		L65.8,7.9z M68.5,56.2l3.6,0.6v-1.5l-3.6-0.6V56.2L68.5,56.2z M68.5,36.8l3.6,0.7v-1.3c0-0.3-3-1-3.6-1V36.8L68.5,36.8z M68.5,49.5
		l3.6,0.6v-1.5L68.5,48V49.5L68.5,49.5z M57.7,57.3v-2.5l4-0.6v2.5v-0.1L57.7,57.3L57.7,57.3z M53.2,55.7l0.1-2.4l1.5-0.7v2.2
		C54.8,55,53.5,55.6,53.2,55.7L53.2,55.7z M70.5,51.2L74,52v2.5l-3.5-0.9v0.1V51.2L70.5,51.2z M55.8,54.6v-2.3c0-0.3,2.7-1,3.2-1
		h0.2v2.4L55.8,54.6L55.8,54.6z M65.5,50.7l4,0.3v2.5l-4-0.3V50.7L65.5,50.7z M60.2,53.5v-2.3c0-0.4,3.1-0.5,3.7-0.5h0.5v2.5
		L60.2,53.5L60.2,53.5z M75.2,54.5l1.5,0.7v0.4c-0.2-0.1-1.7-0.7-1.7-0.9v-2.2c0.3,0,1.7,0.7,1.7,1v0.3L75.2,53V54.5L75.2,54.5z
		 M53.4,52.2v-2.3c0.7-0.2,2.3-1.4,3.4-1.4V51v-0.1L53.4,52.2L53.4,52.2z M68.3,47.5h0.4c0.6,0,3.7,0.4,3.7,0.8v2.3l-4.1-0.7V50
		V47.5L68.3,47.5z M57.7,50.6v-2.5l4-0.7v0.1v2.4L57.7,50.6L57.7,50.6z M62.8,49.9v-2.5l0.9-0.1h2.5l1.1,0.1v2.5L65,49.8h-1.1
		L62.8,49.9L62.8,49.9z M73.6,50.5l3,1.3v0.5c-0.5-0.3-1-0.5-1.6-0.7c-0.3-0.1-1.7-0.4-1.7-0.7v-2.3c0.5,0.1,1.3,0.4,1.7,0.6
		c0.3,0.1,1.4,0.7,1.6,0.8v0.5l-3-1.4v0.1V50.5L73.6,50.5z M53.4,48.9v-0.3l0.1-1.7l1.3-0.7v2.1L53.4,48.9L53.4,48.9z M55.8,47.8
		v-2.2l3.5-0.9V47L55.8,47.8L55.8,47.8z M70.5,44.6l3.5,1v2.1l-3.5-0.8V44.6L70.5,44.6z M75.2,47.7c0,0.2,1.1,0.7,1.4,0.8v0.4
		L75,48.2v-2.1V46l1.5,0.8v0.5l-1.4-0.7L75.2,47.7L75.2,47.7L75.2,47.7z M65.5,44.1c0.7,0,4,0,4,0.5v2.1L66,46.5h-0.6L65.5,44.1
		L65.5,44.1z M60.2,46.8v-2.3l4.1-0.3h0.2v2.4L64,46.5L60.2,46.8L60.2,46.8z M53.4,45.9v-1.8c0.5-0.8,2.3-1.4,3.3-1.8v2.2
		C56.1,44.5,53.9,45.6,53.4,45.9L53.4,45.9z M68.3,41.2h0.6c0.3,0,1.5,0.3,1.8,0.4c0.3,0.1,1.7,0.2,1.7,0.6v2.1l-4.1-0.7V41.2
		L68.3,41.2z M57.7,44.1v-2.2l4-0.7v2.3L57.7,44.1L57.7,44.1z M62.8,43.4V41H64h2l1.4,0.1v2.3l-1.1-0.1h-2.5L62.8,43.4L62.8,43.4z
		 M73.6,44.2c0.9,0.1,2.3,1.1,2.9,1.3v0.4c-0.5-0.2-1-0.5-1.5-0.7c-0.3-0.1-1.6-0.4-1.6-0.7v-2c0.5,0.1,3.1,1.3,3.1,1.8v0.3
		c-0.5-0.1-2-1.5-2.9-1.5V44.2L73.6,44.2z M53.5,42.8v-1.7c0-0.2,1-0.9,1.3-1v2L53.5,42.8L53.5,42.8z M55.8,41.6v-1.9
		c0-0.3,2.8-1.3,3.2-1.3h0.2v2.2v-0.1L55.8,41.6L55.8,41.6z M70.5,38.4l3.5,1v2.1l-3.5-1v0.1V38.4L70.5,38.4z M75.2,41.8
		c0.4,0.2,1.2,0.5,1.2,1L75,42v-2.1l1.4,0.9v0.4l-1.2-0.8L75.2,41.8L75.2,41.8L75.2,41.8z M65.5,37.8h1.3c0.5,0,2.7,0.2,2.7,0.5v2.1
		L66,40.1h-0.5V37.8L65.5,37.8z M60.2,40.5v-2.3l3.5-0.3h0.7v2.3l-0.9-0.1L60.2,40.5L60.2,40.5z M53.6,39.8v-1.7
		c0.5-0.8,2.3-1.6,3.2-2v2.2C56.1,38.3,54.1,39.4,53.6,39.8L53.6,39.8z M68.3,34.8c0.6,0.2,1.5,0.3,2.1,0.4c0.6,0.1,1.5,0.5,2,0.5
		v2.2c-0.9,0-2.6-0.8-3.8-0.8h-0.3L68.3,34.8L68.3,34.8z M57.7,37.9v-2.2c0.6-0.3,3.1-0.8,4-0.9v2.3C60.9,37.1,58.3,37.6,57.7,37.9
		L57.7,37.9z M62.8,37v-2.3l1.9-0.1h0.9l1.8,0.1V37L66,36.9h-2.4L62.8,37L62.8,37z M73.6,38c0.5,0.2,1,0.4,1.5,0.7s0.9,0.6,1.4,0.8
		v0.4c-1.1-0.7-1.9-0.9-3-1.5v-2.1c0.8,0.4,2.5,1.3,3,1.9v0.4c-0.4-0.3-0.8-0.7-1.3-1s-0.9-0.6-1.5-0.8L73.6,38L73.6,38z M53.6,36.7
		v-1.6l1.1-1v1.8L53.6,36.7L53.6,36.7z M75.2,35.7l1.1,0.8v0.3c-0.2-0.2-1.3-0.8-1.3-1l0.1-1.8l1.2,1.2v0.4l-1-0.9L75.2,35.7
		L75.2,35.7L75.2,35.7z M55.8,35.5v-2c0.3-0.1,1.2-0.6,1.7-0.7c0.5-0.2,1.4-0.4,1.8-0.6v2.2C58.1,34.4,56.7,35.3,55.8,35.5
		L55.8,35.5z M70.5,32.1C71,32.3,74,33,74,33.6v1.8l-3.5-1.1v0.1V32.1L70.5,32.1z M65.5,31.4c0.7,0,4,0.1,4,0.6v2l-4-0.3V31.4
		L65.5,31.4z M60.2,34.1v-2c0-0.4,3.5-0.6,4.2-0.6v2.2L60.2,34.1L60.2,34.1z M53.7,33.8c0-1.8,0-1.5,0.9-2.4
		c0.3-0.3,1.7-1.3,2.1-1.4v2C55.7,32.3,54.5,33.2,53.7,33.8L53.7,33.8z M68.3,28.5c0.7,0.2,1.4,0.3,2.1,0.4s1.4,0.5,2,0.6v2
		l-4.1-0.9v0.1V28.5L68.3,28.5z M57.7,31.6v-2.1c0.3,0,1.5-0.5,1.9-0.6c0.7-0.2,1.3-0.4,2.1-0.4v2.2C60.5,30.7,58.9,31.3,57.7,31.6
		L57.7,31.6z M62.8,30.6v-2.2l1.4-0.1h1.7l1.5,0.1v2.2l-1.5-0.1h-2.1L62.8,30.6L62.8,30.6z M73.6,31.9c0.5,0.1,2.7,1.4,2.7,1.9
		c-0.8-0.5-1.9-1.5-2.9-1.7v-2c0.7,0.2,2.8,1.7,2.8,2.5c-0.2-0.2-0.8-0.8-1.2-1.1c-0.5-0.4-0.9-0.6-1.4-0.9V31.9L73.6,31.9z
		 M53.8,30.7c0-1.3,0.2-1.9,1-2.4V30L53.8,30.7L53.8,30.7z M75.2,29.7c0.3,0.2,1,0.5,1,1L75,29.9v-1.8c0.3,0.2,1.1,1,1.1,1.6
		l-0.9-0.9V29.7L75.2,29.7z M55.8,29.3v-1.9c0.3-0.1,1.1-0.7,1.6-0.9c0.6-0.3,1.2-0.5,1.9-0.7V28C58.2,28.1,56.5,29.2,55.8,29.3
		L55.8,29.3z M70.5,25.8c0.4,0,1.5,0.5,1.8,0.6c0.4,0.2,1.5,0.8,1.7,0.8v2C73.4,29,71.3,28,70.5,28V25.8L70.5,25.8z M65.5,25.1h0.2
		V25l3.7,0.5v2.1l-4-0.4L65.5,25.1L65.5,25.1z M60.2,27.7v-2.1L64,25v0.1h0.5v2.2v-0.1L60.2,27.7L60.2,27.7z M53.9,27.8
		c0-1.4,0.3-1.6,0.9-2.4c0.2-0.3,1.5-1.3,1.9-1.4v1.8C55.7,26.1,54.6,27.3,53.9,27.8L53.9,27.8z M73.6,25.7c0.7,0.4,2.1,1.2,2.5,1.8
		v0.3c-0.9-0.6-1.6-1.6-2.8-1.9v-1.8c0.8,0.4,2.6,1.8,2.7,2.8c-0.4-0.5-0.6-0.8-1.1-1.3c-0.4-0.4-0.9-0.7-1.4-1.1L73.6,25.7
		L73.6,25.7z M68.3,22.4c1.3,0,3,0.9,4.1,1.1v1.9c-1.2-0.3-2.6-1-4.1-1V22.4L68.3,22.4z M57.7,25.3v-1.9c0.4,0,1.4-0.5,1.9-0.6
		c0.6-0.1,1.5-0.4,2.1-0.4v2C60.4,24.4,58.9,25.1,57.7,25.3L57.7,25.3z M62.8,24.2v-2l1.9-0.1h0.8l1.8,0.2v2l-1.4-0.1h-2H62.8
		L62.8,24.2z M65,20.6c-2.8,0-5.1,0.6-7.2,1.4c-0.8,0.3-2.2,1.1-2.7,1.6c-0.4,0.4-0.6,0.6-1.1,1c-0.4,0.4-0.6,1-0.9,1.3
		c0-3.7,6.8-5.9,11-5.9h1.6c1.7,0,3.7,0.4,5,0.8c1,0.3,3.5,1.3,4,1.9c-0.3-0.1-1.4-0.7-1.9-0.9c-0.6-0.2-1.5-0.7-2.2-0.8
		c-1.7-0.3-3.1-0.7-5.1-0.7H65V20.6L65,20.6z M76.2,19.6c0.4,0.2,0.8,0.4,1,0.8C77.5,20.5,76.4,19.9,76.2,19.6L76.2,19.6z M65,19
		h-0.6c-2.8,0-5.5,0.8-7.5,1.6c-0.8,0.3-2.2,1.2-2.8,1.7c-0.4,0.4-0.8,0.7-1.1,1.2s-0.5,1.1-0.8,1.5c0-2.7,2.2-4.2,4.2-5
		c2.1-0.8,4.7-1.6,7.6-1.6h1.7c2.2,0,4.4,0.5,6.1,1c1.3,0.4,3.9,1.6,4.5,2.5c-0.1,0-1.7-1.1-2.2-1.3c-0.9-0.4-1.3-0.6-2.3-1
		c-1.4-0.5-4-1-5.8-1h-1.1L65,19L65,19z M54.1,18c0-1.1,0.1-1.9,0.7-2.3v1.6L54.1,18L54.1,18z M65,17.3c-2.9,0-6.1,0.6-8.2,1.5
		c-1.2,0.5-2.1,1-3.1,1.7c-0.4,0.3-1,0.8-1.2,1.2c-0.4,0.5-0.7,1.3-0.9,1.6c0-4.5,8-6.5,13-6.5h0.6c2.4,0,3.8,0.2,5.7,0.6
		c0.9,0.1,4.4,1.3,4.6,1.8c-0.3-0.1-1.5-0.7-2.1-0.9c-0.6-0.3-1.8-0.6-2.4-0.8c-1.7-0.3-3.6-0.7-5.5-0.7H65V17.3L65,17.3L65,17.3z
		 M75.2,17l0.7,0.8v0.3l-0.9-1v-1.6c0.3,0.2,0.8,0.9,0.8,1.3L75.2,16V17L75.2,17z M57.7,16.7c0.4-0.4,3.2-1.2,4-1.2V16v-0.1
		L57.7,16.7L57.7,16.7z M68.3,15.5c0.9,0.1,3.5,0.8,4,1.2l-3.7-1V16h-0.2L68.3,15.5L68.3,15.5z M64.7,15.2h0.9l1.7,0.2v0.5h-0.4
		v-0.3l-1.5-0.2h-0.5v0.4h-1.1l-1.1,0.1v-0.5L64.7,15.2L64.7,15.2z M55.8,14.7c0.2-0.1,1.2-0.7,1.6-0.9c0.4-0.2,1.4-0.7,1.9-0.7v2
		c-0.6,0.2-1.3,0.4-1.8,0.6c-0.4,0.2-1.3,0.8-1.6,0.8L55.8,14.7L55.8,14.7z M70.5,12.9c0.5,0.1,1.5,0.5,1.9,0.7
		c0.3,0.2,1.5,0.9,1.6,0.9v1.9c-0.8-0.2-2.4-1.4-3.5-1.4V12.9L70.5,12.9z M65.5,12.1h0.4l3.6,0.4v2.1l-4-0.5V12.1L65.5,12.1z
		 M63.8,12.1h0.8v2.1c-1.6,0-3,0.3-4.3,0.6v-2.1L63.8,12.1L63.8,12.1z M54.1,14.9c0-1.7,0-1.5,0.8-2.5c0.3-0.3,1.4-1.3,1.8-1.4v2
		C55.7,13.2,54.9,14.4,54.1,14.9L54.1,14.9z M73.4,11.1c0.7,0.2,2.4,1.8,2.4,2.6c-0.9-1-1-1.4-2.2-2.2v1.3l2.3,1.7l-0.1,0.1v0.3
		c-0.7-0.5-1.5-1.6-2.5-1.8L73.4,11.1L73.4,11.1z M68.3,9.3c0.7,0,4.1,0.9,4.1,1.3v1.8c-1-0.1-2.7-1-4.1-1V9.3L68.3,9.3z M57.7,10.5
		c0.7-0.3,3.1-1.1,4-1.1v2.1c-0.9,0-3.4,0.7-4,1V10.5L57.7,10.5z M54.2,11.7c0-1-0.1-1.7,0.6-2.2v1.7L54.2,11.7L54.2,11.7z M64.7,9
		h0.6c0.4,0,2-0.1,2,0.3v2l-1.5-0.2h-1.3l-1.8,0.1V9.1L64.7,9L64.7,9z M75,9.3L75,9.3l0.9,1.1l-0.1,0.1l-0.5-0.7v1.1
		c0.2,0.3,0.5,0.4,0.6,0.8c-0.2,0-0.9-0.7-0.9-0.8V9.3L75,9.3z M55.8,8.5c0.1,0,1.3-0.8,1.6-1C58,7.2,58.6,7,59.2,6.8v2.1
		c-0.5,0.1-1.4,0.5-1.8,0.6c-0.4,0.2-1.4,0.8-1.6,0.8V8.5L55.8,8.5z M70.5,6.7C71.2,6.9,74,8,74,8.5v1.8c-0.8-0.2-2.4-1.4-3.5-1.4
		V6.7L70.5,6.7z M65.5,6c0.7,0,4,0.3,4,0.6v1.9h-0.2l-3.7-0.4V6H65.5z M60.2,6.5c0.4,0,1.4-0.3,2-0.4S63.8,6,64.5,6v2.1l-4.2,0.5
		L60.2,6.5L60.2,6.5z M75.6,8.4C75,8,74.1,7,73.3,6.9V6.5c0.5,0.1,2,1.2,2.3,1.5V8.4L75.6,8.4z M56.7,6.3v0.5C56,7,55,8,54.4,8.4
		V7.9L56.7,6.3L56.7,6.3z M75.6,7.7c-0.1-0.1-0.9-0.9-1.1-1.1s-1.2-0.8-1.2-1V5.3C74.1,5.4,75.6,6.8,75.6,7.7L75.6,7.7z M54.4,7.6
		c0-0.9,1.7-2.2,2.4-2.5v0.6C55.8,5.9,54.9,7.2,54.4,7.6L54.4,7.6z M70.4,5.7c-0.6-0.1-1.4-0.4-2.1-0.4V4.9c0.6,0,1.8,0.3,2.3,0.5
		s1.8,0.3,1.8,0.9C72,6.3,71,5.8,70.4,5.7L70.4,5.7z M61.8,4.8L61.8,4.8v0.4c-1.4,0.3-2.9,0.5-4,1.1V5.9L61.8,4.8L61.8,4.8z
		 M63.8,4.6h2.6l0.8,0.1V5h-1.7h-0.7l-2.1,0.1V4.7L63.8,4.6L63.8,4.6z M70.3,4.4c-0.3-0.1-2-0.4-2-0.7V3.5c0.5,0,1.8,0.3,2.2,0.4
		c0.3,0.1,1.6,0.6,1.9,0.7v0.5C72,5,70.8,4.5,70.3,4.4L70.3,4.4z M57.7,4.6c0.8-0.4,3-1.1,4-1.2v0.4c-0.9,0-3.4,0.9-4,1.3V4.6
		L57.7,4.6z M63.8,3.2h1.8l1.6,0.1v0.4l-1.6-0.2h-0.7l-2.3,0.1V3.3L63.8,3.2L63.8,3.2z M55.8,3.6C56.7,2.3,61.6,1,64,1h1.3
		c2.3-0.1,6.1,0.7,7.2,1.5c-0.4,0-2.6-0.8-3.4-1C68,1.3,66.4,1.1,65,1.1v0.4h-0.5c-1.8,0-3.3,0.3-4.8,0.7c-0.7,0.2-1.4,0.4-2.1,0.6
		C57.1,3,56.1,3.5,55.8,3.6L55.8,3.6z M52.9,6.7v1.5v0.2c0,0.3,0.2,0.8,0.2,1.1c0.1,0.4,0.1,0.9,0.1,1.3c0,0.9-0.1,1.6-0.1,2.6
		c0,1.8-0.1,3.5-0.1,5.3c-0.3,0.4-1.2,1.1-1.6,1.7C51,21.1,50.6,22,50.6,23c0,1.7,2.2,4.6,2.2,5.6v0.5l-0.6,28.1v1.1l1,0.4v-1.8
		c0-0.4,2.9-1.6,3.5-1.7v2.5c-0.6,0.1-3,0.9-3.1,1.3l1.1,0.4v-0.1c0.1,0.3,0.7,0.5,1,0.5V59c0-0.3,2.9-1,3.5-1v0.8l1-0.3v-0.7
		c0.2,0,1.4-0.2,1.6-0.3c0.1-0.1,1-0.8,1-0.9V54h4.5v2.5c0,0.1,1.1,0.9,1.3,1l0.9,0.1v0.6c0,0.2,0.7,0.3,1,0.4v-0.8
		c0.6,0.1,3.5,0.7,3.5,1v0.9l1-0.3V59c0.1,0,0.4,0.1,0.4,0.1c0.1,0,0.8-0.3,1-0.4c-0.1-0.4-2.4-1.2-3-1.3v-2.5
		c0.7,0,2.9,1.1,3.4,1.5v0.5c-1-0.5-2-1.2-3.2-1.5v1.5c0.5,0.1,1.2,0.4,1.7,0.6c0.2,0.1,1.6,0.8,1.6,0.8c0.2,0,0.6-0.3,0.9-0.4v-0.3
		l-0.7-29.5c0.4-0.5,0.3-0.8,0.6-1.3c0.2-0.5,0.5-0.7,0.7-1.3c0.3-0.9,1-1.7,1-2.9c0-1-0.4-1.9-0.8-2.5c-0.5-0.6-1.4-1.3-1.7-1.7
		c0-1.9-0.1-3.5-0.1-5.4c0-0.9-0.1-1.7-0.1-2.7c0-1.2,0.3-1.6,0.3-2.5V6.3c0-4-6.6-6.3-11.4-6.3H64c-2.4,0-5.5,0.9-7.2,1.7
		C55.1,2.6,53,4.3,52.9,6.7L52.9,6.7z"/>
</g>
</svg>
