<?xml version="1.0" encoding="utf-8"?>
<!-- Generator: Adobe Illustrator 25.2.0, SVG Export Plug-In . SVG Version: 6.00 Build 0)  -->
<svg version="1.1" id="Capa_1" xmlns="http://www.w3.org/2000/svg" xmlns:xlink="http://www.w3.org/1999/xlink" x="0px" y="0px"
	 viewBox="0 0 32.3 30.3" style="enable-background:new 0 0 32.3 30.3;" xml:space="preserve">
<style type="text/css">
	.st0{fill:none;stroke:#000000;stroke-width:2.4298;stroke-miterlimit:10;}
</style>
<g id="XMLID_1_">
	<g>
		<path d="M23.5,6.2c0.4-0.3,0.9-0.3,1.4,0.1c0.4,0.4,0.5,1.1,0.2,1.4l-7.4,7.4l-1.6-1.6L23.5,6.2z"/>
		<path d="M25.1,22.5c0.4,0.3,0.4,0.9-0.1,1.4c-0.4,0.4-1.1,0.5-1.4,0.1l-7.4-7.4l1.6-1.6L25.1,22.5z"/>
		<rect x="15.1" y="14.1" transform="matrix(0.7071 -0.7071 0.7071 0.7071 -6.0169 15.8735)" width="2.2" height="2.2"/>
		<path d="M16.1,13.6l-1.5,1.6L7.2,7.8C6.9,7.2,7,6.7,7.3,6.4c0.4-0.4,1.1-0.5,1.4-0.1L16.1,13.6z"/>
		<path d="M14.6,15.2l1.5,1.6l-7.4,7.4c-0.6,0.3-1.1,0.2-1.4-0.1c-0.4-0.4-0.5-1.1-0.1-1.4L14.6,15.2z"/>
	</g>
	<g>
		<path class="st0" d="M17.7,15.2l7.4,7.4c0.4,0.3,0.4,0.9-0.1,1.4c-0.4,0.4-1.1,0.5-1.4,0.1l-7.4-7.4"/>
		<path class="st0" d="M14.6,15.2L7.2,7.8C6.9,7.2,7,6.7,7.3,6.4c0.4-0.4,1.1-0.5,1.4-0.1l7.4,7.4"/>
		<path class="st0" d="M16.1,16.8l-7.4,7.4c-0.6,0.3-1.1,0.2-1.4-0.1c-0.4-0.4-0.5-1.1-0.1-1.4l7.4-7.4l1.5-1.6l7.4-7.4
			c0.4-0.3,0.9-0.3,1.4,0.1c0.4,0.4,0.5,1.1,0.2,1.4l-7.4,7.4L16.1,16.8z"/>
	</g>
</g>
</svg>
