<?xml version="1.0" encoding="utf-8"?>
<!-- Generator: Adobe Illustrator 25.2.0, SVG Export Plug-In . SVG Version: 6.00 Build 0)  -->
<svg version="1.1" id="Capa_1" xmlns="http://www.w3.org/2000/svg" xmlns:xlink="http://www.w3.org/1999/xlink" x="0px" y="0px"
	 viewBox="0 0 32.3 30.3" style="enable-background:new 0 0 32.3 30.3;" xml:space="preserve">
<style type="text/css">
	.st0{stroke:#000000;stroke-width:2.4298;stroke-miterlimit:10;}
</style>
<g>
	<path class="st0" d="M3.7,5.5c0-0.6,0.4-1.1,0.9-1.1h23.1c0.5,0,0.9,0.4,0.9,1.1c0,0.5-0.4,1.1-0.9,1.1H4.6C4,6.4,3.7,6,3.7,5.5z"
		/>
	<path class="st0" d="M3.7,15.2c0-0.6,0.4-1.1,0.9-1.1h23.1c0.5,0,0.9,0.4,0.9,1.1c0,0.5-0.4,1.1-0.9,1.1H4.6
		C4,16.1,3.7,15.7,3.7,15.2z"/>
	<path class="st0" d="M3.7,24.8c0-0.6,0.4-1.1,0.9-1.1h23.1c0.5,0,0.9,0.4,0.9,1.1c0,0.5-0.4,1.1-0.9,1.1H4.6
		C4,25.7,3.7,25.3,3.7,24.8z"/>
</g>
</svg>
